<mxfile host="app.diagrams.net" modified="2023-03-01T15:02:52.253Z" agent="5.0 (Windows NT 10.0; Win64; x64) AppleWebKit/537.36 (KHTML, like Gecko) Chrome/110.0.0.0 Safari/537.36" etag="MdWKiB_K4Zdt1E8bwzWR" version="20.8.23" type="github">
  <diagram name="Page-1" id="e7e014a7-5840-1c2e-5031-d8a46d1fe8dd">
    <mxGraphModel dx="1071" dy="560" grid="1" gridSize="10" guides="1" tooltips="1" connect="1" arrows="1" fold="1" page="1" pageScale="1" pageWidth="1169" pageHeight="826" background="none" math="0" shadow="0">
      <root>
        <mxCell id="0" />
        <mxCell id="1" parent="0" />
        <mxCell id="QqFQxsArFy2yKlHu1bpS-105" style="edgeStyle=none;rounded=0;orthogonalLoop=1;jettySize=auto;html=1;exitX=0.5;exitY=1;exitDx=0;exitDy=0;" edge="1" parent="1" source="2">
          <mxGeometry relative="1" as="geometry">
            <mxPoint x="440" y="825.8823529411766" as="targetPoint" />
          </mxGeometry>
        </mxCell>
        <mxCell id="2" value="Thread 1" style="swimlane;whiteSpace=wrap" parent="1" vertex="1">
          <mxGeometry x="10" y="80" width="860" height="760" as="geometry">
            <mxRectangle x="164.5" y="128" width="90" height="30" as="alternateBounds" />
          </mxGeometry>
        </mxCell>
        <mxCell id="5" value="" style="ellipse;shape=startState;fillColor=#000000;strokeColor=#ff0000;" parent="2" vertex="1">
          <mxGeometry x="360" y="37" width="30" height="30" as="geometry" />
        </mxCell>
        <mxCell id="6" value="" style="edgeStyle=elbowEdgeStyle;elbow=horizontal;verticalAlign=bottom;endArrow=open;endSize=8;strokeColor=#FF0000;endFill=1;rounded=0" parent="2" source="5" target="7" edge="1">
          <mxGeometry x="100" y="40" as="geometry">
            <mxPoint x="115" y="110" as="targetPoint" />
          </mxGeometry>
        </mxCell>
        <mxCell id="QqFQxsArFy2yKlHu1bpS-70" style="edgeStyle=orthogonalEdgeStyle;rounded=0;orthogonalLoop=1;jettySize=auto;html=1;exitX=0.5;exitY=1;exitDx=0;exitDy=0;entryX=0.604;entryY=0.024;entryDx=0;entryDy=0;entryPerimeter=0;" edge="1" parent="2" source="7" target="QqFQxsArFy2yKlHu1bpS-42">
          <mxGeometry relative="1" as="geometry" />
        </mxCell>
        <mxCell id="7" value="Поступление товара на склад " style="align=center;" parent="2" vertex="1">
          <mxGeometry x="290" y="110" width="170" height="70" as="geometry" />
        </mxCell>
        <mxCell id="QqFQxsArFy2yKlHu1bpS-47" style="edgeStyle=orthogonalEdgeStyle;rounded=0;orthogonalLoop=1;jettySize=auto;html=1;exitX=0;exitY=0.5;exitDx=0;exitDy=0;entryX=0.5;entryY=0;entryDx=0;entryDy=0;" edge="1" parent="2" source="QqFQxsArFy2yKlHu1bpS-42" target="QqFQxsArFy2yKlHu1bpS-49">
          <mxGeometry relative="1" as="geometry">
            <mxPoint x="160" y="280" as="targetPoint" />
          </mxGeometry>
        </mxCell>
        <mxCell id="QqFQxsArFy2yKlHu1bpS-48" style="edgeStyle=orthogonalEdgeStyle;rounded=0;orthogonalLoop=1;jettySize=auto;html=1;exitX=1;exitY=0.5;exitDx=0;exitDy=0;entryX=0.5;entryY=0;entryDx=0;entryDy=0;" edge="1" parent="2" source="QqFQxsArFy2yKlHu1bpS-42">
          <mxGeometry relative="1" as="geometry">
            <mxPoint x="505" y="290" as="targetPoint" />
          </mxGeometry>
        </mxCell>
        <mxCell id="QqFQxsArFy2yKlHu1bpS-100" style="edgeStyle=none;rounded=0;orthogonalLoop=1;jettySize=auto;html=1;exitX=0.5;exitY=1;exitDx=0;exitDy=0;entryX=0.5;entryY=0;entryDx=0;entryDy=0;" edge="1" parent="2" source="QqFQxsArFy2yKlHu1bpS-42" target="QqFQxsArFy2yKlHu1bpS-94">
          <mxGeometry relative="1" as="geometry" />
        </mxCell>
        <mxCell id="QqFQxsArFy2yKlHu1bpS-42" value="Проверка на коэффицент" style="rounded=0;whiteSpace=wrap;html=1;" vertex="1" parent="2">
          <mxGeometry x="290.5" y="212" width="139.5" height="68" as="geometry" />
        </mxCell>
        <mxCell id="QqFQxsArFy2yKlHu1bpS-102" style="edgeStyle=none;rounded=0;orthogonalLoop=1;jettySize=auto;html=1;exitX=0.5;exitY=1;exitDx=0;exitDy=0;entryX=0;entryY=0.5;entryDx=0;entryDy=0;" edge="1" parent="2" source="QqFQxsArFy2yKlHu1bpS-49" target="QqFQxsArFy2yKlHu1bpS-101">
          <mxGeometry relative="1" as="geometry" />
        </mxCell>
        <mxCell id="QqFQxsArFy2yKlHu1bpS-49" value="Высокий - А" style="rounded=0;whiteSpace=wrap;html=1;" vertex="1" parent="2">
          <mxGeometry x="150" y="290" width="70" height="50" as="geometry" />
        </mxCell>
        <mxCell id="38" value="" style="ellipse;shape=endState;fillColor=#000000;strokeColor=#ff0000" parent="2" vertex="1">
          <mxGeometry x="355" y="660" width="30" height="30" as="geometry" />
        </mxCell>
        <mxCell id="QqFQxsArFy2yKlHu1bpS-103" style="edgeStyle=none;rounded=0;orthogonalLoop=1;jettySize=auto;html=1;entryX=0.5;entryY=0;entryDx=0;entryDy=0;" edge="1" parent="2" source="QqFQxsArFy2yKlHu1bpS-94" target="QqFQxsArFy2yKlHu1bpS-101">
          <mxGeometry relative="1" as="geometry" />
        </mxCell>
        <mxCell id="QqFQxsArFy2yKlHu1bpS-94" value="Средний-Б" style="rounded=0;whiteSpace=wrap;html=1;" vertex="1" parent="2">
          <mxGeometry x="320.87" y="320" width="78.75" height="50" as="geometry" />
        </mxCell>
        <mxCell id="QqFQxsArFy2yKlHu1bpS-104" style="edgeStyle=none;rounded=0;orthogonalLoop=1;jettySize=auto;html=1;" edge="1" parent="2" source="QqFQxsArFy2yKlHu1bpS-95">
          <mxGeometry relative="1" as="geometry">
            <mxPoint x="430" y="454" as="targetPoint" />
          </mxGeometry>
        </mxCell>
        <mxCell id="QqFQxsArFy2yKlHu1bpS-95" value="Низкий - В" style="rounded=0;whiteSpace=wrap;html=1;" vertex="1" parent="2">
          <mxGeometry x="470" y="289" width="80" height="50" as="geometry" />
        </mxCell>
        <mxCell id="QqFQxsArFy2yKlHu1bpS-113" style="edgeStyle=none;rounded=0;orthogonalLoop=1;jettySize=auto;html=1;exitX=0.5;exitY=1;exitDx=0;exitDy=0;entryX=0.482;entryY=-0.026;entryDx=0;entryDy=0;entryPerimeter=0;" edge="1" parent="2" source="QqFQxsArFy2yKlHu1bpS-101" target="QqFQxsArFy2yKlHu1bpS-106">
          <mxGeometry relative="1" as="geometry" />
        </mxCell>
        <mxCell id="QqFQxsArFy2yKlHu1bpS-101" value="Сортировка по коэффиценту" style="rounded=0;whiteSpace=wrap;html=1;" vertex="1" parent="2">
          <mxGeometry x="290" y="414" width="139.5" height="68" as="geometry" />
        </mxCell>
        <mxCell id="QqFQxsArFy2yKlHu1bpS-114" style="edgeStyle=none;rounded=0;orthogonalLoop=1;jettySize=auto;html=1;entryX=0.5;entryY=0;entryDx=0;entryDy=0;" edge="1" parent="2" source="QqFQxsArFy2yKlHu1bpS-106" target="38">
          <mxGeometry relative="1" as="geometry" />
        </mxCell>
        <mxCell id="QqFQxsArFy2yKlHu1bpS-106" value="Стеллаж&amp;nbsp;&lt;br&gt;А,Б,В" style="rounded=0;whiteSpace=wrap;html=1;" vertex="1" parent="2">
          <mxGeometry x="130" y="530" width="480" height="60" as="geometry" />
        </mxCell>
        <mxCell id="QqFQxsArFy2yKlHu1bpS-59" style="edgeStyle=orthogonalEdgeStyle;rounded=0;orthogonalLoop=1;jettySize=auto;html=1;exitX=1;exitY=0.5;exitDx=0;exitDy=0;entryX=0.5;entryY=0;entryDx=0;entryDy=0;" edge="1" parent="1" source="QqFQxsArFy2yKlHu1bpS-52">
          <mxGeometry relative="1" as="geometry">
            <mxPoint x="371.25" y="908" as="targetPoint" />
          </mxGeometry>
        </mxCell>
        <mxCell id="QqFQxsArFy2yKlHu1bpS-71" style="edgeStyle=orthogonalEdgeStyle;rounded=0;orthogonalLoop=1;jettySize=auto;html=1;exitX=0;exitY=0.5;exitDx=0;exitDy=0;" edge="1" parent="1" source="QqFQxsArFy2yKlHu1bpS-52" target="QqFQxsArFy2yKlHu1bpS-57">
          <mxGeometry relative="1" as="geometry" />
        </mxCell>
        <mxCell id="QqFQxsArFy2yKlHu1bpS-52" value="Ближайший стеллаж к выходу свободен?" style="rounded=0;whiteSpace=wrap;html=1;" vertex="1" parent="1">
          <mxGeometry x="230" y="850" width="77.31" height="58" as="geometry" />
        </mxCell>
        <mxCell id="QqFQxsArFy2yKlHu1bpS-73" style="edgeStyle=orthogonalEdgeStyle;rounded=0;orthogonalLoop=1;jettySize=auto;html=1;exitX=0.5;exitY=1;exitDx=0;exitDy=0;entryX=0;entryY=0.5;entryDx=0;entryDy=0;" edge="1" parent="1" source="QqFQxsArFy2yKlHu1bpS-57" target="QqFQxsArFy2yKlHu1bpS-62">
          <mxGeometry relative="1" as="geometry">
            <mxPoint x="180" y="1090" as="targetPoint" />
          </mxGeometry>
        </mxCell>
        <mxCell id="QqFQxsArFy2yKlHu1bpS-57" value="Да" style="rounded=0;whiteSpace=wrap;html=1;" vertex="1" parent="1">
          <mxGeometry x="150" y="910" width="60" height="36" as="geometry" />
        </mxCell>
        <mxCell id="QqFQxsArFy2yKlHu1bpS-58" value="Нет" style="rounded=0;whiteSpace=wrap;html=1;" vertex="1" parent="1">
          <mxGeometry x="421.75" y="910" width="60" height="38" as="geometry" />
        </mxCell>
        <mxCell id="QqFQxsArFy2yKlHu1bpS-62" value="Размещение товара в ближайшем стеллаже" style="rounded=0;whiteSpace=wrap;html=1;" vertex="1" parent="1">
          <mxGeometry x="205" y="1056" width="115" height="64" as="geometry" />
        </mxCell>
        <mxCell id="QqFQxsArFy2yKlHu1bpS-74" style="edgeStyle=orthogonalEdgeStyle;rounded=0;orthogonalLoop=1;jettySize=auto;html=1;exitX=0.5;exitY=1;exitDx=0;exitDy=0;entryX=1;entryY=0.75;entryDx=0;entryDy=0;" edge="1" parent="1" target="QqFQxsArFy2yKlHu1bpS-62">
          <mxGeometry relative="1" as="geometry">
            <mxPoint x="371" y="1090" as="targetPoint" />
            <mxPoint x="371.25" y="1036" as="sourcePoint" />
          </mxGeometry>
        </mxCell>
        <mxCell id="QqFQxsArFy2yKlHu1bpS-64" value="Поиск ближайшего свободного стеллажа" style="rounded=0;whiteSpace=wrap;html=1;" vertex="1" parent="1">
          <mxGeometry x="410.5" y="972" width="82.5" height="66" as="geometry" />
        </mxCell>
        <mxCell id="QqFQxsArFy2yKlHu1bpS-66" style="edgeStyle=orthogonalEdgeStyle;rounded=0;orthogonalLoop=1;jettySize=auto;html=1;exitX=0.5;exitY=1;exitDx=0;exitDy=0;entryX=0.5;entryY=0;entryDx=0;entryDy=0;" edge="1" parent="1">
          <mxGeometry relative="1" as="geometry">
            <mxPoint x="371.25" y="946" as="sourcePoint" />
            <mxPoint x="371.25" y="970" as="targetPoint" />
          </mxGeometry>
        </mxCell>
        <mxCell id="QqFQxsArFy2yKlHu1bpS-83" style="edgeStyle=orthogonalEdgeStyle;rounded=0;orthogonalLoop=1;jettySize=auto;html=1;exitX=0.5;exitY=1;exitDx=0;exitDy=0;entryX=0.5;entryY=0;entryDx=0;entryDy=0;" edge="1" parent="1" target="QqFQxsArFy2yKlHu1bpS-82">
          <mxGeometry relative="1" as="geometry">
            <mxPoint x="665" y="1046" as="sourcePoint" />
          </mxGeometry>
        </mxCell>
        <mxCell id="QqFQxsArFy2yKlHu1bpS-87" style="edgeStyle=orthogonalEdgeStyle;rounded=0;orthogonalLoop=1;jettySize=auto;html=1;entryX=0.5;entryY=0;entryDx=0;entryDy=0;" edge="1" parent="1">
          <mxGeometry relative="1" as="geometry">
            <mxPoint x="852.5" y="1048.25" as="sourcePoint" />
            <mxPoint x="852.5" y="1105" as="targetPoint" />
          </mxGeometry>
        </mxCell>
        <mxCell id="QqFQxsArFy2yKlHu1bpS-78" value="Низкий" style="rounded=0;whiteSpace=wrap;html=1;" vertex="1" parent="1">
          <mxGeometry x="750" y="960" width="80" height="74.5" as="geometry" />
        </mxCell>
        <mxCell id="QqFQxsArFy2yKlHu1bpS-82" value="Размещение на стеллаже в середине склада" style="rounded=0;whiteSpace=wrap;html=1;" vertex="1" parent="1">
          <mxGeometry x="620" y="1092" width="102.5" height="70" as="geometry" />
        </mxCell>
        <mxCell id="QqFQxsArFy2yKlHu1bpS-85" value="Размещение в конце склада" style="rounded=0;whiteSpace=wrap;html=1;" vertex="1" parent="1">
          <mxGeometry x="700" y="1100" width="120" height="60" as="geometry" />
        </mxCell>
        <mxCell id="QqFQxsArFy2yKlHu1bpS-76" value="Средний" style="rounded=0;whiteSpace=wrap;html=1;" vertex="1" parent="1">
          <mxGeometry x="640" y="930" width="75" height="70" as="geometry" />
        </mxCell>
      </root>
    </mxGraphModel>
  </diagram>
</mxfile>
